<svg width="21" height="20" viewBox="0 0 21 20" fill="none" xmlns="http://www.w3.org/2000/svg">
<path d="M17.2246 3.76001H14.0996V3.13501C14.0996 2.63773 13.9021 2.16082 13.5504 1.80918C13.1988 1.45755 12.7219 1.26001 12.2246 1.26001H8.47461C7.97733 1.26001 7.50041 1.45755 7.14878 1.80918C6.79715 2.16082 6.59961 2.63773 6.59961 3.13501V3.76001H3.47461C3.30885 3.76001 3.14988 3.82586 3.03267 3.94307C2.91546 4.06028 2.84961 4.21925 2.84961 4.38501C2.84961 4.55077 2.91546 4.70974 3.03267 4.82695C3.14988 4.94416 3.30885 5.01001 3.47461 5.01001H4.09961V16.26C4.09961 16.5915 4.23131 16.9095 4.46573 17.1439C4.70015 17.3783 5.01809 17.51 5.34961 17.51H15.3496C15.6811 17.51 15.9991 17.3783 16.2335 17.1439C16.4679 16.9095 16.5996 16.5915 16.5996 16.26V5.01001H17.2246C17.3904 5.01001 17.5493 4.94416 17.6666 4.82695C17.7838 4.70974 17.8496 4.55077 17.8496 4.38501C17.8496 4.21925 17.7838 4.06028 17.6666 3.94307C17.5493 3.82586 17.3904 3.76001 17.2246 3.76001ZM7.84961 3.13501C7.84961 2.96925 7.91546 2.81028 8.03267 2.69307C8.14988 2.57586 8.30885 2.51001 8.47461 2.51001H12.2246C12.3904 2.51001 12.5493 2.57586 12.6666 2.69307C12.7838 2.81028 12.8496 2.96925 12.8496 3.13501V3.76001H7.84961V3.13501ZM15.3496 16.26H5.34961V5.01001H15.3496V16.26ZM9.09961 8.13501V13.135C9.09961 13.3008 9.03376 13.4597 8.91655 13.577C8.79934 13.6942 8.64037 13.76 8.47461 13.76C8.30885 13.76 8.14988 13.6942 8.03267 13.577C7.91546 13.4597 7.84961 13.3008 7.84961 13.135V8.13501C7.84961 7.96925 7.91546 7.81028 8.03267 7.69307C8.14988 7.57586 8.30885 7.51001 8.47461 7.51001C8.64037 7.51001 8.79934 7.57586 8.91655 7.69307C9.03376 7.81028 9.09961 7.96925 9.09961 8.13501ZM12.8496 8.13501V13.135C12.8496 13.3008 12.7838 13.4597 12.6666 13.577C12.5493 13.6942 12.3904 13.76 12.2246 13.76C12.0588 13.76 11.8999 13.6942 11.7827 13.577C11.6655 13.4597 11.5996 13.3008 11.5996 13.135V8.13501C11.5996 7.96925 11.6655 7.81028 11.7827 7.69307C11.8999 7.57586 12.0588 7.51001 12.2246 7.51001C12.3904 7.51001 12.5493 7.57586 12.6666 7.69307C12.7838 7.81028 12.8496 7.96925 12.8496 8.13501Z" fill="#0F0F0F"/>
</svg>
