<svg width="21" height="21" viewBox="0 0 21 21" fill="none" xmlns="http://www.w3.org/2000/svg">
<path d="M19.4059 12.5956L18.4684 5.09564C18.4113 4.64242 18.1907 4.22564 17.848 3.92355C17.5054 3.62147 17.0642 3.45486 16.6074 3.45502H3.16992C2.8384 3.45502 2.52046 3.58671 2.28604 3.82113C2.05162 4.05555 1.91992 4.3735 1.91992 4.70502V11.58C1.91992 11.9115 2.05162 12.2295 2.28604 12.4639C2.52046 12.6983 2.8384 12.83 3.16992 12.83H6.53398L9.48555 18.7347C9.53751 18.8385 9.61737 18.9259 9.71617 18.9868C9.81497 19.0478 9.92881 19.0801 10.0449 19.08C10.8737 19.08 11.6686 18.7508 12.2546 18.1647C12.8407 17.5787 13.1699 16.7838 13.1699 15.955V14.705H17.5449C17.811 14.7051 18.074 14.6486 18.3166 14.5392C18.5591 14.4298 18.7756 14.27 18.9516 14.0705C19.1276 13.8709 19.2592 13.6362 19.3375 13.3819C19.4158 13.1277 19.4391 12.8596 19.4059 12.5956ZM6.29492 11.58H3.16992V4.70502H6.29492V11.58ZM18.0137 13.2433C17.9554 13.3103 17.8834 13.3639 17.8025 13.4005C17.7216 13.437 17.6337 13.4556 17.5449 13.455H12.5449C12.3792 13.455 12.2202 13.5209 12.103 13.6381C11.9858 13.7553 11.9199 13.9143 11.9199 14.08V15.955C11.92 16.3885 11.77 16.8087 11.4952 17.144C11.2204 17.4793 10.838 17.709 10.4129 17.7941L7.54492 12.0574V4.70502H16.6074C16.7597 4.70496 16.9067 4.7605 17.021 4.8612C17.1352 4.96189 17.2087 5.10082 17.2277 5.25189L18.1652 12.7519C18.1769 12.8399 18.1695 12.9294 18.1433 13.0142C18.1171 13.099 18.0729 13.1772 18.0137 13.2433Z" fill="#0F0F0F"/>
</svg>
