<svg width="21" height="21" viewBox="0 0 21 21" fill="none" xmlns="http://www.w3.org/2000/svg">
<path d="M18.9512 6.58939C18.7752 6.38996 18.5588 6.23025 18.3163 6.12088C18.0739 6.0115 17.8109 5.95496 17.5449 5.95502H13.1699V4.70502C13.1699 3.87622 12.8407 3.08136 12.2546 2.49531C11.6686 1.90926 10.8737 1.58002 10.0449 1.58002C9.92881 1.57993 9.81497 1.6122 9.71617 1.67319C9.61737 1.73418 9.53751 1.82149 9.48555 1.92533L6.53398 7.83002H3.16992C2.8384 7.83002 2.52046 7.96171 2.28604 8.19613C2.05162 8.43055 1.91992 8.7485 1.91992 9.08002V15.955C1.91992 16.2865 2.05162 16.6045 2.28604 16.8389C2.52046 17.0733 2.8384 17.205 3.16992 17.205H16.6074C17.0642 17.2052 17.5054 17.0386 17.848 16.7365C18.1907 16.4344 18.4113 16.0176 18.4684 15.5644L19.4059 8.06439C19.4391 7.80035 19.4157 7.53225 19.3373 7.27794C19.2589 7.02362 19.1273 6.7889 18.9512 6.58939ZM3.16992 9.08002H6.29492V15.955H3.16992V9.08002ZM18.1652 7.90814L17.2277 15.4081C17.2087 15.5592 17.1352 15.6981 17.021 15.7988C16.9067 15.8995 16.7597 15.9551 16.6074 15.955H7.54492V8.60267L10.4129 2.86595C10.838 2.95103 11.2204 3.18076 11.4952 3.51607C11.7699 3.85137 11.92 4.27152 11.9199 4.70502V6.58002C11.9199 6.74578 11.9858 6.90475 12.103 7.02196C12.2202 7.13917 12.3792 7.20502 12.5449 7.20502H17.5449C17.6336 7.20499 17.7213 7.22383 17.8021 7.2603C17.883 7.29677 17.9551 7.35003 18.0138 7.41654C18.0725 7.48305 18.1163 7.56128 18.1424 7.64604C18.1686 7.7308 18.1763 7.82015 18.1652 7.90814Z" fill="#0F0F0F"/>
</svg>
