<svg width="21" height="20" viewBox="0 0 21 20" fill="none" xmlns="http://www.w3.org/2000/svg">
<path d="M18.1082 5.74202L14.6176 2.25062C14.5015 2.13451 14.3637 2.04241 14.212 1.97958C14.0603 1.91674 13.8978 1.8844 13.7336 1.8844C13.5694 1.8844 13.4069 1.91674 13.2552 1.97958C13.1035 2.04241 12.9657 2.13451 12.8496 2.25062L3.21602 11.885C3.09944 12.0006 3.00702 12.1383 2.94411 12.29C2.88121 12.4417 2.84909 12.6044 2.84962 12.7686V16.26C2.84962 16.5915 2.98131 16.9095 3.21573 17.1439C3.45015 17.3783 3.7681 17.51 4.09962 17.51H7.59102C7.75523 17.5105 7.91791 17.4784 8.0696 17.4155C8.22129 17.3526 8.35896 17.2602 8.47462 17.1436L18.1082 7.50999C18.2243 7.39391 18.3164 7.2561 18.3792 7.10443C18.4421 6.95275 18.4744 6.79018 18.4744 6.62601C18.4744 6.46183 18.4421 6.29926 18.3792 6.14759C18.3164 5.99591 18.2243 5.8581 18.1082 5.74202ZM7.59102 16.26H4.09962V12.7686L10.9746 5.89359L14.466 9.38499L7.59102 16.26ZM15.3496 8.50062L11.8582 5.00999L13.7332 3.13499L17.2246 6.62562L15.3496 8.50062Z" fill="#0F0F0F"/>
</svg>
