<svg width="21" height="20" viewBox="0 0 21 20" fill="none" xmlns="http://www.w3.org/2000/svg">
<path d="M18.2915 17.0678L14.3798 13.1569C15.5135 11.7957 16.0789 10.0498 15.9582 8.28245C15.8376 6.51507 15.0402 4.86224 13.7319 3.6678C12.4237 2.47335 10.7053 1.82927 8.93423 1.86952C7.16318 1.90977 5.47583 2.63126 4.22319 3.8839C2.97055 5.13654 2.24906 6.82389 2.20881 8.59493C2.16856 10.366 2.81265 12.0844 4.00709 13.3926C5.20153 14.7009 6.85436 15.4983 8.62175 15.6189C10.3891 15.7396 12.135 15.1742 13.4962 14.0405L17.4071 17.9522C17.4652 18.0103 17.5341 18.0563 17.61 18.0878C17.6859 18.1192 17.7672 18.1354 17.8493 18.1354C17.9314 18.1354 18.0127 18.1192 18.0886 18.0878C18.1645 18.0563 18.2334 18.0103 18.2915 17.9522C18.3496 17.8941 18.3956 17.8252 18.427 17.7493C18.4585 17.6734 18.4746 17.5921 18.4746 17.51C18.4746 17.4279 18.4585 17.3466 18.427 17.2707C18.3956 17.1948 18.3496 17.1259 18.2915 17.0678ZM3.4743 8.76C3.4743 7.64748 3.8042 6.55995 4.42228 5.63492C5.04037 4.7099 5.91887 3.98893 6.9467 3.56318C7.97454 3.13744 9.10554 3.02605 10.1967 3.24309C11.2878 3.46013 12.2901 3.99586 13.0768 4.78253C13.8634 5.5692 14.3992 6.57148 14.6162 7.66262C14.8333 8.75377 14.7219 9.88476 14.2961 10.9126C13.8704 11.9404 13.1494 12.8189 12.2244 13.437C11.2994 14.0551 10.2118 14.385 9.0993 14.385C7.60796 14.3834 6.17818 13.7902 5.12365 12.7357C4.06912 11.6811 3.47595 10.2513 3.4743 8.76Z" fill="#0F0F0F"/>
</svg>
