<svg width="17" height="17" viewBox="0 0 17 17" fill="none" xmlns="http://www.w3.org/2000/svg">
<path d="M4.54479 12.1412L4.822 11.6784L4.69364 11.6029H4.54479V12.1412ZM4.54479 5.67361V6.21293H4.69364L4.82308 6.13635L4.54479 5.67361ZM9.93802 2.43983H10.4773C10.4774 2.3444 10.4521 2.25068 10.404 2.16823C10.356 2.08578 10.2869 2.01755 10.2039 1.9705C10.1209 1.92345 10.0269 1.89927 9.93148 1.90043C9.83606 1.90159 9.74266 1.92804 9.66081 1.97709L9.93802 2.43983ZM9.93802 15.3749L9.66081 15.8377C9.74266 15.8867 9.83606 15.9132 9.93148 15.9143C10.0269 15.9155 10.1209 15.8913 10.2039 15.8443C10.2869 15.7972 10.356 15.729 10.404 15.6465C10.4521 15.5641 10.4774 15.4704 10.4773 15.3749H9.93802ZM15.712 5.29177L15.3313 4.911L14.5686 5.67361L14.9505 6.05545L15.712 5.29177ZM14.9505 11.7593L14.5686 12.1412L15.3313 12.9038L15.712 12.523L14.9505 11.7593ZM4.54479 11.6029L2.3875 11.6018V12.6805H4.54479V11.6029ZM2.3875 11.6018C2.24446 11.6018 2.10728 11.545 2.00614 11.4439C1.905 11.3427 1.84818 11.2056 1.84818 11.0625H0.769531C0.769531 11.9578 1.49438 12.6805 2.3875 12.6805V11.6018ZM1.84818 11.0625V6.75225H0.769531V11.0647L1.84818 11.0625ZM1.84818 6.75225C1.84846 6.6094 1.90541 6.47142 2.00652 6.37051C2.10763 6.2696 2.24465 6.21293 2.3875 6.21293V5.13428C1.95839 5.13428 1.54685 5.30475 1.24342 5.60818C0.939995 5.9116 0.769531 6.32314 0.769531 6.75225H1.84818ZM2.3875 6.21293H4.54479V5.13428H2.3875V6.21293ZM4.82308 6.13635L10.2152 2.90257L9.66081 1.97709L4.26758 5.21087L4.82308 6.13635ZM9.3987 2.43983V15.3749H10.4773V2.43983H9.3987ZM10.2152 14.9122L4.822 11.6784L4.26758 12.6039L9.66081 15.8377L10.2152 14.9122ZM15.3313 5.67361C14.9505 6.05545 14.9494 6.05545 14.9494 6.05437L14.9473 6.05221L14.9505 6.05545L14.9721 6.07918C14.9936 6.10363 15.026 6.1439 15.0691 6.19999C15.1522 6.31109 15.2698 6.48583 15.3884 6.72313C15.6257 7.19665 15.8706 7.92258 15.8706 8.90739H16.9492C16.9492 7.73598 16.6558 6.8461 16.3527 6.24097C16.2344 5.99858 16.0935 5.76782 15.9321 5.55172C15.8707 5.47067 15.8055 5.39257 15.7368 5.31765L15.7217 5.30147L15.7163 5.29608L15.7142 5.29392L15.7131 5.29284L15.3313 5.67361ZM15.8706 8.90739C15.8706 9.89219 15.6246 10.6181 15.3884 11.0916C15.274 11.3211 15.1343 11.5371 14.9721 11.7356L14.9505 11.7593L14.9473 11.7626L14.9483 11.7615L14.9494 11.7604L15.3313 12.1412C15.712 12.523 15.7131 12.523 15.7131 12.5219L15.7163 12.5187L15.7217 12.5133L15.7368 12.4982L15.7832 12.4464C15.822 12.4033 15.8713 12.3422 15.931 12.2631C16.0496 12.1056 16.2017 11.8747 16.3527 11.5738C16.6547 10.9698 16.9492 10.0788 16.9492 8.90739H15.8706Z" fill="#888888"/>
</svg>
