<svg width="17" height="24" viewBox="0 0 17 24" fill="none" xmlns="http://www.w3.org/2000/svg">
<path d="M6.13719 6.09834H5.9954C6.07338 6.09834 6.13719 6.03454 6.13719 5.95655V6.09834H11.5251V5.95655C11.5251 6.03454 11.5889 6.09834 11.6668 6.09834H11.5251V7.37442H12.8011V5.95655C12.8011 5.33092 12.2925 4.82227 11.6668 4.82227H5.9954C5.36977 4.82227 4.86111 5.33092 4.86111 5.95655V7.37442H6.13719V6.09834ZM15.0697 7.37442H2.59254C2.27883 7.37442 2.02539 7.62786 2.02539 7.94156V8.5087C2.02539 8.58669 2.08919 8.65049 2.16718 8.65049H3.23766L3.67543 17.9198C3.70378 18.5241 4.20358 19.0009 4.80794 19.0009H12.8543C13.4604 19.0009 13.9585 18.5259 13.9868 17.9198L14.4246 8.65049H15.4951C15.5731 8.65049 15.6369 8.58669 15.6369 8.5087V7.94156C15.6369 7.62786 15.3834 7.37442 15.0697 7.37442ZM12.7178 17.7248H4.94441L4.51551 8.65049H13.1467L12.7178 17.7248Z" fill="#888888"/>
</svg>
