<svg width="13" height="14" viewBox="0 0 13 14" fill="none" xmlns="http://www.w3.org/2000/svg">
<path fill-rule="evenodd" clip-rule="evenodd" d="M6.8201 0.734375C7.05408 0.734375 7.27848 0.827323 7.44393 0.992773C7.60938 1.15822 7.70233 1.38262 7.70233 1.6166V6.02772H12.1135C12.3474 6.02772 12.5718 6.12067 12.7373 6.28612C12.9027 6.45157 12.9957 6.67597 12.9957 6.90995C12.9957 7.14393 12.9027 7.36832 12.7373 7.53377C12.5718 7.69922 12.3474 7.79217 12.1135 7.79217H7.70233V12.2033C7.70233 12.4373 7.60938 12.6617 7.44393 12.8271C7.27848 12.9926 7.05408 13.0855 6.8201 13.0855C6.58612 13.0855 6.36173 12.9926 6.19628 12.8271C6.03083 12.6617 5.93788 12.4373 5.93788 12.2033V7.79217H1.52676C1.29278 7.79217 1.06838 7.69922 0.902929 7.53377C0.73748 7.36832 0.644531 7.14393 0.644531 6.90995C0.644531 6.67597 0.73748 6.45157 0.902929 6.28612C1.06838 6.12067 1.29278 6.02772 1.52676 6.02772H5.93788V1.6166C5.93788 1.38262 6.03083 1.15822 6.19628 0.992773C6.36173 0.827323 6.58612 0.734375 6.8201 0.734375Z" fill="#888888"/>
</svg>
