<svg width="14" height="15" viewBox="0 0 14 15" fill="none" xmlns="http://www.w3.org/2000/svg">
<path fill-rule="evenodd" clip-rule="evenodd" d="M10.5232 10.4523C12.3199 8.1449 12.1576 4.80669 10.0365 2.68554C7.7396 0.388674 4.01561 0.388674 1.71875 2.68554C-0.578124 4.98241 -0.578124 8.70636 1.71875 11.0032C3.8399 13.1244 7.17814 13.2867 9.48552 11.4901C9.49545 11.5013 9.50581 11.5124 9.51655 11.5231L12.6357 14.6422C12.9228 14.9294 13.3883 14.9294 13.6754 14.6422C13.9625 14.3551 13.9625 13.8897 13.6754 13.6025L10.5563 10.4834C10.5455 10.4727 10.5345 10.4623 10.5232 10.4523ZM8.9967 3.72526C10.7194 5.4479 10.7194 8.24084 8.9967 9.96353C7.27408 11.6862 4.4811 11.6862 2.75846 9.96353C1.0358 8.24084 1.0358 5.4479 2.75846 3.72526C4.4811 2.0026 7.27408 2.0026 8.9967 3.72526Z" fill="#888888"/>
</svg>
