<svg width="41" height="40" viewBox="0 0 41 40" fill="none" xmlns="http://www.w3.org/2000/svg">
<path d="M0.5 20C0.5 8.95431 9.45431 0 20.5 0C31.5457 0 40.5 8.95431 40.5 20C40.5 31.0457 31.5457 40 20.5 40C9.45431 40 0.5 31.0457 0.5 20Z" fill="#6941C6"/>
<path d="M16.7015 11.5375C17.0804 11.5375 17.4438 11.688 17.7117 11.9559C17.9796 12.2238 18.1301 12.5872 18.1301 12.966V27.2518C18.1301 27.6306 17.9796 27.994 17.7117 28.2619C17.4438 28.5298 17.0804 28.6803 16.7015 28.6803C16.3226 28.6803 15.9593 28.5298 15.6914 28.2619C15.4235 27.994 15.2729 27.6306 15.2729 27.2518V12.966C15.2729 12.5872 15.4235 12.2238 15.6914 11.9559C15.9593 11.688 16.3226 11.5375 16.7015 11.5375ZM25.2729 11.5375C25.6518 11.5375 26.0152 11.688 26.2831 11.9559C26.551 12.2238 26.7015 12.5872 26.7015 12.966V27.2518C26.7015 27.6306 26.551 27.994 26.2831 28.2619C26.0152 28.5298 25.6518 28.6803 25.2729 28.6803C24.8941 28.6803 24.5307 28.5298 24.2628 28.2619C23.9949 27.994 23.8444 27.6306 23.8444 27.2518V12.966C23.8444 12.5872 23.9949 12.2238 24.2628 11.9559C24.5307 11.688 24.8941 11.5375 25.2729 11.5375Z" fill="white"/>
</svg>
