<svg width="33" height="32" viewBox="0 0 33 32" fill="none" xmlns="http://www.w3.org/2000/svg">
<rect x="0.5" width="32" height="32" rx="7" fill="#EBEBFE"/>
<path d="M12.6667 10.5834H9.41667C8.84203 10.5834 8.29093 10.8116 7.8846 11.218C7.47827 11.6243 7.25 12.1754 7.25 12.75V22.5C7.25 23.0747 7.47827 23.6258 7.8846 24.0321C8.29093 24.4384 8.84203 24.6667 9.41667 24.6667H24.5833C25.158 24.6667 25.7091 24.4384 26.1154 24.0321C26.5217 23.6258 26.75 23.0747 26.75 22.5V12.75C26.75 12.1754 26.5217 11.6243 26.1154 11.218C25.7091 10.8116 25.158 10.5834 24.5833 10.5834H21.3333M20.25 14.9167L17 18.1667M17 18.1667L13.75 14.9167M17 18.1667V7.33337" stroke="#6941C6" stroke-width="2.16667" stroke-linecap="round" stroke-linejoin="round"/>
</svg>
