<svg width="40" height="40" viewBox="0 0 40 40" fill="none" xmlns="http://www.w3.org/2000/svg">
<path d="M0 20C0 8.95431 8.95431 0 20 0V0C31.0457 0 40 8.95431 40 20V20C40 31.0457 31.0457 40 20 40V40C8.95431 40 0 31.0457 0 20V20Z" fill="#6941C6"/>
<path d="M28.409 17.9854C28.8893 18.2281 29.291 18.5903 29.5712 19.0332C29.8514 19.4762 29.9994 19.9832 29.9994 20.5C29.9994 21.0168 29.8514 21.5238 29.5712 21.9668C29.291 22.4097 28.8893 22.772 28.409 23.0146L15.597 29.633C13.534 30.6999 11 29.3129 11 27.1194V13.8816C11 11.6871 13.534 10.3011 15.597 11.366L28.409 17.9854Z" fill="white"/>
</svg>
